<svg xmlns="http://www.w3.org/2000/svg" width="15" height="15" viewBox="0 0 15 15"><path fill="#6b7280" d="M7.5,0 C11.6421356,2.53632657e-16 15,3.35786438 15,7.5 C15,11.6421356 11.6421356,15 7.5,15 C3.35786438,15 5.07265313e-16,11.6421356 0,7.5 C-5.07265313e-16,3.35786438 3.35786438,7.6089797e-16 7.5,0 Z M5.46,7.21 L5.46,7.232 C5.46,7.609 5.787,7.51 6.164,7.51 L6.822,7.51 L6.822,10.911 L6.053,10.911 C5.676,10.911 5.455,10.854 5.455,11.231 L5.455,11.936 C5.455,12.313 5.675,12.299 6.053,12.299 L9.62,12.299 C9.997,12.299 10.24,12.313 10.24,11.936 L10.24,11.21 C10.24,10.832 9.997,10.911 9.62,10.911 L8.873,10.911 L8.873,6.961 C8.873,6.858 8.869,6.767 8.86,6.687 L8.86,6.015 C8.86,5.295 8.148,5.46 7.536,5.46 L6.144,6.42 C5.66,6.784 5.461,6.834 5.461,7.21 L5.46,7.21 Z M6.15,3.38 C6.13671255,3.87882382 6.39530328,4.34553124 6.82528034,4.59875345 C7.2552574,4.85197567 7.78881615,4.85178115 8.21860847,4.59824549 C8.64840078,4.34470984 8.90665115,3.877814 8.893,3.379 C8.893,2.62126532 8.27873468,2.007 7.521,2.007 C6.76326532,2.007 6.149,2.62126532 6.149,3.379 L6.15,3.38 Z"/></svg>
